# This file uses centimeters as units for non-parametric coordinates.

mtllib Normal_Tile_Master_4.mtl
g default
v -0.859598 0.172469 0.809610
v -0.806331 0.168277 0.860894
v -0.797498 0.218272 0.797498
v 0.797498 0.218272 0.797498
v 0.809610 0.172469 0.859598
v 0.859598 0.172469 0.809610
v -0.860894 0.168277 -0.806331
v -0.797498 0.218272 -0.797498
v -0.806331 0.168277 -0.860894
v 0.806331 0.168277 -0.860894
v 0.797498 0.218272 -0.797498
v 0.860894 0.168277 -0.806331
v -1.000000 -0.281728 0.945436
v -0.945436 -0.281728 1.000000
v 1.000000 -0.281728 0.945436
v 0.945436 -0.281728 1.000000
v -1.000000 -0.281728 -0.945436
v -0.945436 -0.281728 -1.000000
v 1.000000 -0.281728 -0.945436
v 0.945436 -0.281728 -1.000000
v 0.000000 -0.281728 1.000000
v 0.001640 0.170373 0.860246
v 0.000000 0.218272 0.797498
v 0.000000 0.218272 -0.797498
v 0.000000 0.168277 -0.860894
v 0.000000 -0.281728 -1.000000
v -0.472718 -0.281728 1.000000
v -0.402345 0.169325 0.860570
v -0.398749 0.218272 0.797498
v -0.398749 0.218272 -0.797498
v -0.403165 0.168277 -0.860894
v -0.472718 -0.281728 -1.000000
v 0.472718 -0.281728 1.000000
v 0.405625 0.171421 0.859922
v 0.398749 0.218272 0.797498
v 0.398749 0.218272 -0.797498
v 0.403165 0.168277 -0.860894
v 0.472718 -0.281728 -1.000000
v -1.000000 -0.281728 0.000000
v -0.860246 0.170373 0.001640
v -0.797498 0.218272 0.000000
v -0.398749 0.296113 0.000000
v 0.000000 0.296113 0.000000
v 0.398749 0.296113 0.000000
v 0.797498 0.218272 0.000000
v 0.860246 0.170373 0.001640
v 1.000000 -0.281728 0.000000
v -1.000000 -0.281728 0.472718
v -0.859922 0.171421 0.405625
v -0.797498 0.218272 0.398749
v -0.398749 0.296113 0.398749
v 0.000000 0.218272 0.398749
v 0.398749 0.296113 0.398749
v 0.797498 0.218272 0.398749
v 0.859922 0.171421 0.405625
v 1.000000 -0.281728 0.472718
v -1.000000 -0.281728 -0.472718
v -0.860570 0.169325 -0.402345
v -0.797498 0.218272 -0.398749
v -0.398749 0.296113 -0.398749
v 0.000000 0.218272 -0.398749
v 0.398749 0.218272 -0.398749
v 0.797498 0.218272 -0.398749
v 0.860570 0.169325 -0.402345
v 1.000000 -0.281728 -0.472718
v 0.709077 -0.281728 1.000000
v 0.607617 0.171945 0.859760
v 0.598123 0.218272 0.797498
v 0.598123 0.296113 0.398749
v 0.598123 0.296113 0.000000
v 0.598123 0.218272 -0.398749
v 0.598123 0.218272 -0.797498
v 0.604748 0.168277 -0.860894
v 0.709077 -0.281728 -1.000000
v 0.236359 -0.281728 1.000000
v 0.203632 0.170897 0.860084
v 0.199374 0.218272 0.797498
v 0.199374 0.218272 0.398749
v 0.199374 0.296113 0.000000
v 0.199374 0.218272 -0.398749
v 0.199374 0.218272 -0.797498
v 0.201583 0.168277 -0.860894
v 0.236359 -0.281728 -1.000000
v -0.236359 -0.281728 1.000000
v -0.200353 0.169849 0.860408
v -0.199374 0.218272 0.797498
v -0.199374 0.218272 0.398749
v -0.199374 0.296113 0.000000
v -0.199374 0.218272 -0.398749
v -0.199374 0.218272 -0.797498
v -0.201583 0.168277 -0.860894
v -0.236359 -0.281728 -1.000000
v -0.709077 -0.281728 1.000000
v -0.604338 0.168801 0.860732
v -0.598123 0.218272 0.797498
v -0.598123 0.296113 0.398749
v -0.598123 0.296113 0.000000
v -0.598123 0.296113 -0.398749
v -0.598123 0.218272 -0.797498
v -0.604748 0.168277 -0.860894
v -0.709077 -0.281728 -1.000000
v -1.000000 -0.281728 -0.709077
v -0.860732 0.168801 -0.604338
v -0.797498 0.218272 -0.598123
v -0.598123 0.296113 -0.598123
v -0.398749 0.296113 -0.598123
v -0.199374 0.296113 -0.598123
v 0.000000 0.296113 -0.598123
v 0.199374 0.296113 -0.598123
v 0.398749 0.296113 -0.598123
v 0.598123 0.296113 -0.598123
v 0.797498 0.218272 -0.598123
v 0.860732 0.168801 -0.604338
v 1.000000 -0.281728 -0.709077
v -1.000000 -0.281728 -0.236359
v -0.860408 0.169849 -0.200353
v -0.797498 0.218272 -0.199374
v -0.598123 0.296113 -0.199374
v -0.398749 0.296113 -0.199374
v -0.199374 0.296113 -0.199374
v 0.000000 0.296113 -0.199374
v 0.199374 0.296113 -0.199374
v 0.398749 0.296113 -0.199374
v 0.598123 0.296113 -0.199374
v 0.797498 0.218272 -0.199374
v 0.860408 0.169849 -0.200353
v 1.000000 -0.281728 -0.236359
v -1.000000 -0.281728 0.236359
v -0.860084 0.170897 0.203632
v -0.797498 0.218272 0.199374
v -0.598123 0.296113 0.199374
v -0.398749 0.296113 0.199374
v -0.199374 0.218272 0.199374
v 0.000000 0.218272 0.199374
v 0.199374 0.218272 0.199374
v 0.398749 0.296113 0.199374
v 0.598123 0.296113 0.199374
v 0.797498 0.218272 0.199374
v 0.860084 0.170897 0.203632
v 1.000000 -0.281728 0.236359
v -1.000000 -0.281728 0.709077
v -0.859760 0.171945 0.607617
v -0.797498 0.218272 0.598123
v -0.598123 0.296113 0.598123
v -0.398749 0.296113 0.598123
v -0.199374 0.296113 0.598123
v 0.000000 0.296113 0.598123
v 0.199374 0.296113 0.598123
v 0.398749 0.296113 0.598123
v 0.598123 0.296113 0.598123
v 0.797498 0.218272 0.598123
v 0.859760 0.171945 0.607617
v 1.000000 -0.281728 0.709077
vt 0.791572 0.953779
vt 0.641315 0.978200
vt 0.797821 0.954289
vt 0.781271 0.898946
vt 0.774622 0.898946
vt 0.797821 0.954289
vt 0.643949 0.988160
vt 0.791730 0.954289
vt 0.774622 0.898946
vt 0.781271 0.898946
vt 0.838184 0.953425
vt 0.845129 0.953425
vt 0.862836 0.896146
vt 0.855890 0.896146
vt 0.845129 0.953425
vt 0.838184 0.953425
vt 0.855890 0.896146
vt 0.862836 0.896146
vt 0.799297 0.959870
vt 0.799297 0.959870
vt 0.837060 0.959789
vt 0.837060 0.959789
vt 0.886956 0.955497
vt 0.879109 0.929256
vt 0.988353 0.929256
vt 0.980316 0.955255
vt 0.886956 0.955497
vt 0.879109 0.929256
vt 0.000308 0.674681
vt 0.322437 0.674681
vt 0.322437 0.996810
vt 0.000308 0.996810
vt 0.990790 0.988160
vt 0.992710 0.977288
vt 0.643949 0.988160
vt 0.641315 0.978200
vt 0.992710 0.977288
vt 0.990790 0.988160
vt 0.643236 0.988160
vt 0.641315 0.977288
vt 0.992710 0.978200
vt 0.990077 0.988160
vt 0.641315 0.977288
vt 0.643236 0.988160
vt 0.990077 0.988160
vt 0.991997 0.977288
vt 0.887146 0.955255
vt 0.879109 0.929256
vt 0.988353 0.929256
vt 0.980506 0.955497
vt 0.887146 0.955255
vt 0.980316 0.955255
vt 0.988353 0.929256
vt 0.879109 0.929256
vt 0.980316 0.955255
vt 0.988353 0.929256
vt 0.933731 0.929256
vt 0.817013 0.977744
vt 0.933826 0.955376
vt 0.816656 0.988160
vt 0.161373 0.674681
vt 0.816656 0.988160
vt 0.161373 0.996810
vt 0.816656 0.977288
vt 0.933731 0.955255
vt 0.933731 0.929256
vt 0.906420 0.929256
vt 0.729164 0.977516
vt 0.910486 0.955315
vt 0.729946 0.988160
vt 0.080841 0.674681
vt 0.729946 0.988160
vt 0.080841 0.996810
vt 0.728985 0.977288
vt 0.910438 0.955255
vt 0.906420 0.929256
vt 0.961042 0.929256
vt 0.904861 0.977972
vt 0.957166 0.955437
vt 0.903366 0.988160
vt 0.241905 0.674681
vt 0.903366 0.988160
vt 0.241905 0.996810
vt 0.904327 0.977288
vt 0.957024 0.955255
vt 0.961042 0.929256
vt 0.933731 0.929256
vt 0.817013 0.977744
vt 0.933636 0.955376
vt 0.817369 0.988160
vt 0.000308 0.835745
vt 0.080841 0.835745
vt 0.161373 0.835745
vt 0.241905 0.835745
vt 0.817369 0.988160
vt 0.322437 0.835745
vt 0.817013 0.977744
vt 0.933636 0.955376
vt 0.933731 0.929256
vt 0.906420 0.929256
vt 0.729164 0.977972
vt 0.910296 0.955437
vt 0.730659 0.988160
vt 0.000308 0.755213
vt 0.080841 0.755213
vt 0.161373 0.755213
vt 0.241905 0.755213
vt 0.730659 0.988160
vt 0.322437 0.755213
vt 0.729164 0.977972
vt 0.910296 0.955437
vt 0.906420 0.929256
vt 0.961042 0.929256
vt 0.904862 0.977516
vt 0.956976 0.955315
vt 0.904079 0.988160
vt 0.000308 0.916278
vt 0.080841 0.916278
vt 0.161373 0.916278
vt 0.241905 0.916278
vt 0.904079 0.988160
vt 0.322437 0.916278
vt 0.904862 0.977516
vt 0.956976 0.955315
vt 0.961042 0.929256
vt 0.974697 0.929256
vt 0.948786 0.978086
vt 0.968836 0.955467
vt 0.946721 0.988160
vt 0.282171 0.674681
vt 0.282171 0.755213
vt 0.282171 0.835745
vt 0.282171 0.916278
vt 0.946721 0.988160
vt 0.282171 0.996810
vt 0.948162 0.977288
vt 0.968670 0.955255
vt 0.974697 0.929256
vt 0.947386 0.929256
vt 0.860937 0.977858
vt 0.945496 0.955406
vt 0.860011 0.988160
vt 0.201639 0.674681
vt 0.201639 0.755213
vt 0.201639 0.835745
vt 0.201639 0.916278
vt 0.860011 0.988160
vt 0.201639 0.996810
vt 0.860491 0.977288
vt 0.945377 0.955255
vt 0.947386 0.929256
vt 0.920076 0.929256
vt 0.773088 0.977630
vt 0.922156 0.955346
vt 0.773301 0.988160
vt 0.121107 0.674681
vt 0.121107 0.755213
vt 0.121107 0.835745
vt 0.121107 0.916278
vt 0.773301 0.988160
vt 0.121107 0.996810
vt 0.772821 0.977288
vt 0.922085 0.955255
vt 0.920076 0.929256
vt 0.892765 0.929256
vt 0.685239 0.977402
vt 0.898816 0.955285
vt 0.686591 0.988160
vt 0.040575 0.674681
vt 0.040575 0.755213
vt 0.040575 0.835745
vt 0.040575 0.916278
vt 0.686591 0.988160
vt 0.040575 0.996810
vt 0.685150 0.977288
vt 0.898792 0.955255
vt 0.892765 0.929256
vt 0.974697 0.929256
vt 0.948786 0.977402
vt 0.968646 0.955285
vt 0.947435 0.988160
vt 0.000308 0.956544
vt 0.040575 0.956544
vt 0.080841 0.956544
vt 0.121107 0.956544
vt 0.161373 0.956544
vt 0.201639 0.956544
vt 0.241905 0.956544
vt 0.282171 0.956544
vt 0.947435 0.988160
vt 0.322437 0.956544
vt 0.948786 0.977402
vt 0.968646 0.955285
vt 0.974697 0.929256
vt 0.947386 0.929256
vt 0.860937 0.977630
vt 0.945306 0.955346
vt 0.860724 0.988160
vt 0.000308 0.876012
vt 0.040575 0.876012
vt 0.080841 0.876012
vt 0.121107 0.876012
vt 0.161373 0.876012
vt 0.201639 0.876012
vt 0.241905 0.876012
vt 0.282171 0.876012
vt 0.860724 0.988160
vt 0.322437 0.876012
vt 0.860937 0.977630
vt 0.945306 0.955346
vt 0.947386 0.929256
vt 0.920076 0.929256
vt 0.773088 0.977858
vt 0.921966 0.955406
vt 0.774014 0.988160
vt 0.000308 0.795479
vt 0.040575 0.795479
vt 0.080841 0.795479
vt 0.121107 0.795479
vt 0.161373 0.795479
vt 0.201639 0.795479
vt 0.241905 0.795479
vt 0.282171 0.795479
vt 0.774014 0.988160
vt 0.322437 0.795479
vt 0.773088 0.977858
vt 0.921966 0.955406
vt 0.920076 0.929256
vt 0.892765 0.929256
vt 0.685239 0.978086
vt 0.898626 0.955467
vt 0.687304 0.988160
vt 0.000308 0.714947
vt 0.040575 0.714947
vt 0.080841 0.714947
vt 0.121107 0.714947
vt 0.161373 0.714947
vt 0.201639 0.714947
vt 0.241905 0.714947
vt 0.282171 0.714947
vt 0.687304 0.988160
vt 0.322437 0.714947
vt 0.685239 0.978086
vt 0.898626 0.955467
vt 0.892765 0.929256
vn -0.616210 0.787582 -0.000780
vn -0.616058 0.787700 -0.000780
vn -0.351673 0.866801 -0.353528
vn -0.673790 0.549263 -0.494284
vn -0.483319 0.545490 0.684722
vn -0.627823 0.415776 0.658003
vn -0.634822 0.397668 0.662466
vn -0.634822 0.397668 0.662466
vn -0.038454 0.788318 0.614066
vn -0.000780 0.787582 0.616210
vn -0.000780 0.787700 0.616058
vn 0.616058 0.787700 -0.000780
vn 0.616210 0.787582 -0.000780
vn 0.673790 0.549263 -0.494284
vn 0.351673 0.866801 -0.353528
vn 0.669574 0.549253 0.499993
vn 0.499992 0.549253 0.669574
vn 0.649587 0.395059 0.649588
vn 0.649587 0.395059 0.649588
vn -0.493642 0.549220 -0.674296
vn -0.647901 0.400560 -0.647901
vn -0.647901 0.400560 -0.647901
vn 0.000000 0.785211 -0.619228
vn 0.000000 0.785211 -0.619228
vn 0.493641 0.549221 -0.674296
vn 0.647901 0.400560 -0.647901
vn 0.647901 0.400560 -0.647901
vn -0.000000 0.295333 0.955395
vn -0.000000 0.295333 0.955395
vn -0.000000 0.295333 0.955395
vn -0.000000 0.295332 0.955395
vn -0.279796 0.955519 -0.093265
vn -0.142381 0.979518 -0.142381
vn -0.093265 0.955519 -0.279796
vn -0.188175 0.963940 -0.188175
vn 0.000000 0.295333 -0.955395
vn 0.000000 0.295332 -0.955395
vn 0.000000 0.295333 -0.955395
vn 0.000000 0.295333 -0.955395
vn 0.955395 0.295332 0.000000
vn 0.955395 0.295333 -0.000000
vn 0.955395 0.295333 -0.000000
vn 0.955395 0.295333 -0.000000
vn -0.955395 0.295333 -0.000000
vn -0.955395 0.295333 -0.000000
vn -0.955395 0.295333 -0.000000
vn -0.955395 0.295332 0.000000
vn 0.334453 0.881069 0.334453
vn -0.000000 0.295332 0.955395
vn -0.000000 0.295332 0.955395
vn 0.000000 0.295332 0.955395
vn 0.000000 0.295332 0.955395
vn -0.000793 0.794850 0.606806
vn -0.000793 0.794880 0.606766
vn -0.000797 0.797344 0.603525
vn -0.000797 0.797261 0.603634
vn 0.000000 0.931519 -0.363692
vn 0.000000 1.000000 0.000000
vn 0.000000 1.000000 0.000000
vn 0.000000 0.931519 -0.363692
vn 0.000000 0.785211 -0.619228
vn 0.000000 0.785211 -0.619228
vn 0.000000 0.785211 -0.619228
vn 0.000000 0.785211 -0.619228
vn 0.000000 0.295333 -0.955395
vn 0.000000 0.295333 -0.955395
vn 0.000000 0.295332 -0.955395
vn 0.000000 0.295332 -0.955395
vn 0.000000 0.295332 0.955395
vn 0.000000 0.295332 0.955395
vn -0.000000 0.295332 0.955395
vn -0.000000 0.295332 0.955395
vn -0.000784 0.790070 0.613017
vn -0.000784 0.789999 0.613108
vn -0.000788 0.792432 0.609960
vn -0.000788 0.792453 0.609933
vn 0.000000 0.931519 -0.363691
vn 0.048233 0.988300 -0.144698
vn 0.048688 0.997627 -0.048688
vn 0.000000 0.931519 -0.363692
vn 0.000000 0.785211 -0.619228
vn 0.000000 0.785211 -0.619228
vn 0.000000 0.785211 -0.619228
vn 0.000000 0.785211 -0.619228
vn 0.000000 0.295332 -0.955395
vn 0.000000 0.295332 -0.955395
vn 0.000000 0.295332 -0.955395
vn 0.000000 0.295333 -0.955395
vn -0.000000 0.295332 0.955395
vn -0.000000 0.295332 0.955395
vn -0.000000 0.295332 0.955395
vn -0.000000 0.295332 0.955395
vn -0.000802 0.799686 0.600417
vn -0.000802 0.799822 0.600237
vn -0.000807 0.802315 0.596900
vn -0.000806 0.802125 0.597155
vn 0.000000 0.931519 -0.363691
vn 0.000000 1.000000 -0.000000
vn 0.092900 0.995676 -0.000000
vn 0.093265 0.955519 -0.279796
vn 0.000000 0.785211 -0.619228
vn 0.000000 0.785211 -0.619228
vn 0.000000 0.785211 -0.619228
vn 0.000000 0.785211 -0.619228
vn 0.000000 0.295332 -0.955395
vn 0.000000 0.295332 -0.955395
vn 0.000000 0.295332 -0.955395
vn 0.000000 0.295333 -0.955395
vn -0.955395 0.295332 -0.000000
vn -0.955395 0.295332 -0.000000
vn -0.955395 0.295332 -0.000000
vn -0.955395 0.295332 -0.000000
vn -0.603525 0.797344 -0.000797
vn -0.603634 0.797261 -0.000797
vn -0.606806 0.794850 -0.000793
vn -0.606766 0.794880 -0.000793
vn -0.363692 0.931519 0.000000
vn -0.191597 0.981474 0.000000
vn -0.191597 0.981474 0.000000
vn -0.363692 0.931519 0.000000
vn 0.144698 0.988300 0.048233
vn 0.142381 0.979518 0.142381
vn 0.048233 0.988300 0.144698
vn 0.048688 0.997627 0.048688
vn 0.000000 0.981474 0.191598
vn -0.142381 0.979518 0.142381
vn -0.048233 0.988300 0.144698
vn 0.000000 0.981474 0.191598
vn -0.144698 0.988300 0.048233
vn 0.191598 0.981474 0.000000
vn 0.191598 0.981474 0.000000
vn -0.048688 0.997627 0.048688
vn 0.603634 0.797261 -0.000797
vn 0.603525 0.797344 -0.000797
vn 0.606766 0.794880 -0.000793
vn 0.606806 0.794850 -0.000793
vn 0.955395 0.295332 -0.000000
vn 0.955395 0.295332 -0.000000
vn 0.955395 0.295332 -0.000000
vn 0.955395 0.295332 -0.000000
vn -0.955395 0.295332 -0.000000
vn -0.955395 0.295332 -0.000000
vn -0.955395 0.295332 0.000000
vn -0.955395 0.295332 -0.000000
vn -0.596900 0.802315 -0.000807
vn -0.597155 0.802125 -0.000806
vn -0.600417 0.799686 -0.000802
vn -0.600237 0.799822 -0.000802
vn -0.279796 0.955519 0.093265
vn -0.142381 0.979518 0.142381
vn -0.191598 0.981474 0.000000
vn -0.363692 0.931519 0.000000
vn 0.048233 0.988300 0.144698
vn 0.048688 0.997627 0.048688
vn 0.142381 0.979518 -0.142381
vn 0.144698 0.988300 -0.048233
vn 0.000000 1.000000 0.000000
vn -0.048688 0.997627 0.048688
vn -0.142381 0.979518 -0.142381
vn 0.000000 0.981474 -0.191598
vn -0.048233 0.988300 0.144698
vn 0.142381 0.979518 0.142381
vn 0.191598 0.981474 0.000000
vn -0.144698 0.988300 -0.048233
vn 0.597155 0.802125 -0.000806
vn 0.596900 0.802315 -0.000807
vn 0.600237 0.799822 -0.000802
vn 0.600417 0.799686 -0.000802
vn 0.955395 0.295332 -0.000000
vn 0.955395 0.295332 0.000000
vn 0.955395 0.295332 -0.000000
vn 0.955395 0.295332 -0.000000
vn -0.955395 0.295332 -0.000000
vn -0.955395 0.295332 0.000000
vn -0.955395 0.295332 -0.000000
vn -0.955395 0.295332 -0.000000
vn -0.609960 0.792432 -0.000788
vn -0.609933 0.792453 -0.000788
vn -0.613017 0.790070 -0.000784
vn -0.613107 0.789999 -0.000784
vn -0.363692 0.931519 0.000000
vn -0.191597 0.981474 0.000000
vn -0.191598 0.981474 0.000000
vn -0.363692 0.931519 0.000000
vn 0.048688 0.997627 -0.048688
vn 0.048233 0.988300 -0.144698
vn 0.092900 0.995676 0.000000
vn 0.097145 0.995270 0.000000
vn 0.000000 0.981474 -0.191598
vn 0.000000 0.981474 -0.191598
vn 0.000000 1.000000 0.000000
vn 0.000000 1.000000 0.000000
vn 0.000000 0.981474 -0.191597
vn 0.142381 0.979518 -0.142381
vn 0.097145 0.995270 0.000000
vn 0.000000 1.000000 -0.000000
vn 0.609933 0.792453 -0.000788
vn 0.609960 0.792432 -0.000788
vn 0.613107 0.789999 -0.000784
vn 0.613017 0.790070 -0.000784
vn 0.955395 0.295332 -0.000000
vn 0.955395 0.295332 -0.000000
vn 0.955395 0.295332 0.000000
vn 0.955395 0.295332 -0.000000
vn 0.000000 0.295332 0.955395
vn 0.000000 0.295332 0.955395
vn 0.363692 0.931519 0.000000
vn 0.279796 0.955519 0.093265
vn 0.363692 0.931519 0.000000
vn 0.363692 0.931519 0.000000
vn 0.191598 0.981474 0.000000
vn 0.279796 0.955519 -0.093265
vn 0.191598 0.981474 0.000000
vn 0.188175 0.963940 -0.188175
vn 0.000000 0.295333 -0.955395
vn 0.000000 0.295333 -0.955395
vn -0.955395 0.295332 0.000000
vn -0.955395 0.295332 0.000000
vn -0.595359 0.803460 -0.000809
vn -0.595359 0.803460 -0.000809
vn -0.188175 0.963940 0.188175
vn -0.093265 0.955519 0.279796
vn 0.000000 0.931519 0.363691
vn 0.000000 0.931519 0.363692
vn 0.000000 0.931519 0.363692
vn 0.000000 0.931519 0.363692
vn 0.000000 0.931519 0.363691
vn 0.093265 0.955519 0.279796
vn 0.188175 0.963940 0.188175
vn 0.955395 0.295332 0.000000
vn 0.955395 0.295332 0.000000
s 1
g Base_Tile1
usemtl initialShadingGroup
f 103/179/1 104/181/2 8/33/3 7/34/4
f 2/1/5 1/3/6 13/4/7 14/5/8
f 3/39/9 2/40/5 94/166/10 95/168/11
f 112/190/12 113/192/13 12/37/14 11/38/15
f 6/6/16 5/8/17 16/9/18 15/10/19
f 7/11/4 9/12/20 18/13/21 17/14/22
f 9/43/20 8/44/3 99/173/23 100/175/24
f 10/15/25 12/16/14 19/17/26 20/18/27
s 5
f 2/47/28 14/48/29 93/165/30 94/167/31
s 6
f 104/182/32 105/183/33 99/174/34 8/32/35
s 7
f 9/51/36 100/176/37 101/177/38 18/54/39
s 8
f 113/193/40 114/194/41 19/25/42 12/26/43
s 9
f 7/55/44 17/56/45 102/178/46 103/180/47
s 1
f 1/3/6 2/1/5 3/19/9
f 4/20/48 5/8/17 6/6/16
f 7/11/4 8/21/3 9/12/20
f 10/15/25 11/22/15 12/16/14
s 5
f 22/59/49 21/57/50 75/139/51 76/141/52
s 1
f 23/60/53 22/58/54 76/140/55 77/142/56
s 6
f 24/63/57 108/186/58 109/187/59 81/148/60
s 1
f 25/64/61 24/62/62 81/147/63 82/149/64
s 7
f 26/66/65 25/65/66 82/150/67 83/151/68
s 5
f 28/69/69 27/67/70 84/152/71 85/154/72
s 1
f 29/70/73 28/68/74 85/153/75 86/155/76
s 6
f 30/73/77 106/184/78 107/185/79 90/161/80
s 1
f 31/74/81 30/72/82 90/160/83 91/162/84
s 7
f 32/76/85 31/75/86 91/163/87 92/164/88
s 5
f 34/79/89 33/77/90 66/126/91 67/128/92
s 1
f 35/80/93 34/78/94 67/127/95 68/129/96
s 6
f 36/83/97 110/188/98 111/189/99 72/135/100
s 1
f 37/84/101 36/82/102 72/134/103 73/136/104
s 7
f 38/86/105 37/85/106 73/137/107 74/138/108
s 9
f 40/89/109 39/87/110 128/212/111 129/214/112
s 1
f 129/213/113 130/215/114 41/90/115 40/88/116
s 6
f 130/216/117 131/217/118 97/171/119 41/91/120
f 132/218/121 133/219/122 88/158/123 42/92/124
f 134/220/125 135/221/126 79/145/127 43/93/128
f 136/222/129 137/223/130 70/132/131 44/94/132
s 1
f 138/224/133 139/226/134 46/97/135 45/95/136
s 8
f 139/227/137 140/228/138 47/99/139 46/98/140
s 9
f 49/102/141 48/100/142 141/229/143 142/231/144
s 1
f 142/230/145 143/232/146 50/103/147 49/101/148
s 6
f 143/233/149 144/234/150 96/170/151 50/104/152
f 145/235/153 146/236/154 87/157/155 51/105/156
f 147/237/157 148/238/158 78/144/159 52/106/160
f 149/239/161 150/240/162 69/131/163 53/107/164
s 1
f 151/241/165 152/243/166 55/110/167 54/108/168
s 8
f 152/244/169 153/245/170 56/112/171 55/111/172
s 9
f 58/115/173 57/113/174 115/195/175 116/197/176
s 1
f 116/196/177 117/198/178 59/116/179 58/114/180
s 6
f 117/199/181 118/200/182 98/172/183 59/117/184
f 119/201/185 120/202/186 89/159/187 60/118/188
f 121/203/189 122/204/190 80/146/191 61/119/192
f 123/205/193 124/206/194 71/133/195 62/120/196
s 1
f 125/207/197 126/209/198 64/123/199 63/121/200
s 8
f 126/210/201 127/211/202 65/125/203 64/124/204
s 5
f 67/128/92 66/126/91 16/49/205 5/50/206
s 1
f 68/129/96 67/127/95 5/41/17 4/42/48
s 6
f 54/109/207 69/131/163 150/240/162 151/242/208
f 45/96/209 70/132/131 137/223/130 138/225/210
f 63/122/211 71/133/195 124/206/194 125/208/212
f 72/135/100 111/189/99 112/191/213 11/31/214
s 1
f 73/136/104 72/134/103 11/45/15 10/46/25
s 7
f 74/138/108 73/137/107 10/52/215 20/53/216
s 5
f 76/141/52 75/139/51 33/77/90 34/79/89
s 1
f 77/142/56 76/140/55 34/78/94 35/80/93
s 6
f 53/107/164 78/144/159 148/238/158 149/239/161
f 44/94/132 79/145/127 135/221/126 136/222/129
f 62/120/196 80/146/191 122/204/190 123/205/193
f 81/148/60 109/187/59 110/188/98 36/83/97
s 1
f 82/149/64 81/147/63 36/82/102 37/84/101
s 7
f 83/151/68 82/150/67 37/85/106 38/86/105
s 5
f 85/154/72 84/152/71 21/57/50 22/59/49
s 1
f 86/155/76 85/153/75 22/58/54 23/60/53
s 6
f 52/106/160 87/157/155 146/236/154 147/237/157
f 43/93/128 88/158/123 133/219/122 134/220/125
f 61/119/192 89/159/187 120/202/186 121/203/189
f 90/161/80 107/185/79 108/186/58 24/63/57
s 1
f 91/162/84 90/160/83 24/62/62 25/64/61
s 7
f 92/164/88 91/163/87 25/65/66 26/66/65
s 5
f 94/167/31 93/165/30 27/67/70 28/69/69
s 1
f 95/168/11 94/166/10 28/68/74 29/70/73
s 6
f 96/170/151 144/234/150 145/235/153 51/105/156
f 97/171/119 131/217/118 132/218/121 42/92/124
f 98/172/183 118/200/182 119/201/185 60/118/188
f 99/174/34 105/183/33 106/184/78 30/73/77
s 1
f 100/175/24 99/173/23 30/72/82 31/74/81
s 7
f 101/177/38 100/176/37 31/75/86 32/76/85
s 9
f 103/180/47 102/178/46 57/113/174 58/115/173
s 1
f 58/114/180 59/116/179 104/181/2 103/179/1
s 6
f 59/117/184 98/172/183 105/183/33 104/182/32
f 106/184/78 105/183/33 98/172/183 60/118/188
f 107/185/79 106/184/78 60/118/188 89/159/187
f 108/186/58 107/185/79 89/159/187 61/119/192
f 109/187/59 108/186/58 61/119/192 80/146/191
f 110/188/98 109/187/59 80/146/191 62/120/196
f 111/189/99 110/188/98 62/120/196 71/133/195
f 112/191/213 111/189/99 71/133/195 63/122/211
s 1
f 63/121/200 64/123/199 113/192/13 112/190/12
s 8
f 64/124/204 65/125/203 114/194/41 113/193/40
s 9
f 116/197/176 115/195/175 39/87/110 40/89/109
s 1
f 40/88/116 41/90/115 117/198/178 116/196/177
s 6
f 41/91/120 97/171/119 118/200/182 117/199/181
f 119/201/185 118/200/182 97/171/119 42/92/124
f 88/158/123 120/202/186 119/201/185 42/92/124
f 121/203/189 120/202/186 88/158/123 43/93/128
f 79/145/127 122/204/190 121/203/189 43/93/128
f 123/205/193 122/204/190 79/145/127 44/94/132
f 70/132/131 124/206/194 123/205/193 44/94/132
f 125/208/212 124/206/194 70/132/131 45/96/209
s 1
f 45/95/136 46/97/135 126/209/198 125/207/197
s 8
f 46/98/140 47/99/139 127/211/202 126/210/201
s 9
f 129/214/112 128/212/111 48/100/142 49/102/141
s 1
f 49/101/148 50/103/147 130/215/114 129/213/113
s 6
f 50/104/152 96/170/151 131/217/118 130/216/117
f 132/218/121 131/217/118 96/170/151 51/105/156
f 87/157/155 133/219/122 132/218/121 51/105/156
f 134/220/125 133/219/122 87/157/155 52/106/160
f 78/144/159 135/221/126 134/220/125 52/106/160
f 136/222/129 135/221/126 78/144/159 53/107/164
f 69/131/163 137/223/130 136/222/129 53/107/164
f 138/225/210 137/223/130 69/131/163 54/109/207
s 1
f 54/108/168 55/110/167 139/226/134 138/224/133
s 8
f 55/111/172 56/112/171 140/228/138 139/227/137
s 9
f 142/231/144 141/229/143 13/28/217 1/27/218
s 1
f 1/2/219 3/7/220 143/232/146 142/230/145
s 6
f 3/29/221 95/169/222 144/234/150 143/233/149
f 145/235/153 144/234/150 95/169/222 29/71/223
f 86/156/224 146/236/154 145/235/153 29/71/223
f 147/237/157 146/236/154 86/156/224 23/61/225
f 77/143/226 148/238/158 147/237/157 23/61/225
f 149/239/161 148/238/158 77/143/226 35/81/227
f 68/130/228 150/240/162 149/239/161 35/81/227
f 151/242/208 150/240/162 68/130/228 4/30/229
s 1
f 4/35/48 6/36/16 152/243/166 151/241/165
s 8
f 6/23/230 15/24/231 153/245/170 152/244/169
